<svg width="100" height="100" viewBox="0 0 100 100" fill="none" xmlns="http://www.w3.org/2000/svg" style="width: 200px; height: 200px;"><style>
     .line-cloud1-down {animation:line-cloud1-down 1.6s infinite;}
     @keyframes line-cloud1-down {
         0%{transform: translate3d(0, -1px, 0);}
         50%{transform: translate3d(0, 1px, 0);}
         100%{transform: translate3d(0, -1px, 0);}
     }
     .line-cloud1-up {animation:line-cloud1-up 1.6s infinite;}
     @keyframes line-cloud1-up {
         0%{transform: translate3d(0, 1px, 0);}
         50%{transform: translate3d(0, -1px, 0);}
         100%{transform: translate3d(0, 1px, 0);}
     }
     @media (prefers-reduced-motion: reduce) {
         .line-cloud1-down, .line-cloud1-up {
             animation: none;
         }
     }
    </style><path class="fill2" d="M78.6667 54H22.3333C22.3333 54 5 52.8732 5 38.507C5 24.1408 22.3333 23.0141 22.3333 23.0141C22.3333 23.0141 29.7619 4 47.5595 4C68.1429 4 72.7857 17.662 72.7857 17.662C72.7857 17.662 74.9524 17.1754 78.6667 17.9437C92.2857 20.7606 96 27.5211 96 35.9718C96 52.8732 78.6667 54 78.6667 54Z" fill="#fff" stroke-width="2px" style="animation-duration: 0.7s;"></path><path class="stroke2" d="M72.7857 17.662C72.7857 17.662 74.9524 17.1754 78.6667 17.9437C92.2857 20.7606 96 27.5211 96 35.9718C96 52.8732 78.6667 54 78.6667 54H22.3333C22.3333 54 5 52.8732 5 38.507C5 24.1408 22.3333 23.0141 22.3333 23.0141C22.3333 23.0141 29.7619 4 47.5595 4C68.1429 4 72.7857 17.662 72.7857 17.662ZM72.7857 17.662C72.7857 17.662 68.5902 18.3964 66.2857 19.6338" stroke="#000" stroke-width="2px" style="animation-duration: 0.7s;"></path><path class="line-cloud1-up stroke2" d="M43.647 37.4211L43.647 23M43.647 23L49.4167 28.744M43.647 23L38 28.744" stroke="#000" stroke-width="2px" stroke-linecap="round" style="animation-duration: 0.7s;"></path><path class="line-cloud1-down stroke2" d="M58.647 23L58.647 37.4211M58.647 37.4211L64.4167 31.6771M58.647 37.4211L53 31.6771" stroke="#000" stroke-width="2px" stroke-linecap="round" style="animation-duration: 0.7s;"></path><path class="fill1" d="M73 53C73 57.9706 63.3741 62 51.5 62C39.6259 62 30 57.9706 30 53C30 48.0294 39.6259 44 51.5 44C63.3741 44 73 48.0294 73 53Z" fill="#fff" stroke-width="2px" style="animation-duration: 0.7s;"></path><path class="fill1" d="M73 53C73 57.9706 63.3741 62 51.5 62C39.6259 62 30 57.9706 30 53V67.75C30 67.75 35 73.75 51.5 73.75C68 73.75 73 67.75 73 67.75V53Z" fill="#fff" stroke-width="2px" style="animation-duration: 0.7s;"></path><path class="fill1" d="M30 67.75V78.5C30 78.5 37 84.5 51.5 84.5C66 84.5 73 78.5 73 78.5V67.75C73 67.75 68 73.75 51.5 73.75C35 73.75 30 67.75 30 67.75Z" fill="#fff" stroke-width="2px" style="animation-duration: 0.7s;"></path><path class="fill1" d="M30 87.0816C30 87.3576 30.0558 87.6291 30.1985 87.8652C31.1447 89.4314 35.8227 95.5 51.5 95.5C67.1773 95.5 71.8553 89.4314 72.8015 87.8652C72.9442 87.6291 73 87.3576 73 87.0816V78.5C73 78.5 66 84.5 51.5 84.5C37 84.5 30 78.5 30 78.5V87.0816Z" fill="#fff" stroke-width="2px" style="animation-duration: 0.7s;"></path><path class="stroke1" d="M73 53C73 57.9706 63.3741 62 51.5 62C39.6259 62 30 57.9706 30 53M73 53C73 48.0294 63.3741 44 51.5 44C39.6259 44 30 48.0294 30 53M73 53V67.75M30 53V67.75M73 78.5V87.0816C73 87.3576 72.9442 87.6291 72.8015 87.8652C71.8553 89.4314 67.1773 95.5 51.5 95.5C35.8227 95.5 31.1447 89.4314 30.1985 87.8652C30.0558 87.6291 30 87.3576 30 87.0816V78.5M73 78.5V67.75M73 78.5C73 78.5 66 84.5 51.5 84.5C37 84.5 30 78.5 30 78.5M30 78.5V67.75M30 67.75C30 67.75 35 73.75 51.5 73.75C68 73.75 73 67.75 73 67.75" stroke="#000" stroke-width="2px" style="animation-duration: 0.7s;"></path></svg>